<?xml version="1.0" encoding="UTF-8"?>
<svg xmlns="http://www.w3.org/2000/svg" xmlns:xlink="http://www.w3.org/1999/xlink" width="100px" height="40px" viewBox="0 0 98 40" version="1.1">
<g id="surface1">
<path style=" stroke:none;fill-rule:nonzero;fill:rgb(7.45098%,2.745098%,32.941176%);fill-opacity:1;" d="M 34.832031 24.058594 C 33.605469 24.058594 32.355469 23.546875 31.570312 22.539062 L 31.570312 27.972656 L 29.113281 27.972656 L 29.113281 14.558594 L 31.335938 14.558594 L 31.421875 16.035156 C 32.183594 14.898438 33.539062 14.300781 34.832031 14.300781 C 37.308594 14.300781 39.136719 16.398438 39.136719 19.179688 C 39.136719 21.960938 37.3125 24.058594 34.832031 24.058594 Z M 34.070312 16.140625 C 32.632812 16.140625 31.464844 17.277344 31.464844 19.179688 C 31.464844 21.085938 32.632812 22.222656 34.070312 22.222656 C 35.511719 22.222656 36.675781 21.085938 36.675781 19.183594 C 36.675781 17.277344 35.511719 16.140625 34.070312 16.140625 Z M 34.070312 16.140625 "/>
<path style=" stroke:none;fill-rule:nonzero;fill:rgb(7.45098%,2.745098%,32.941176%);fill-opacity:1;" d="M 48.40625 23.804688 L 48.324219 22.328125 C 47.558594 23.460938 46.203125 24.0625 44.910156 24.058594 C 42.433594 24.058594 40.605469 21.964844 40.605469 19.183594 C 40.605469 16.402344 42.429688 14.300781 44.910156 14.304688 C 46.203125 14.304688 47.558594 14.90625 48.324219 16.035156 L 48.40625 14.5625 L 50.636719 14.5625 L 50.636719 23.804688 Z M 45.675781 16.144531 C 44.234375 16.144531 43.070312 17.277344 43.066406 19.183594 C 43.066406 21.085938 44.234375 22.222656 45.671875 22.222656 C 47.113281 22.222656 48.28125 21.085938 48.28125 19.183594 C 48.28125 17.277344 47.117188 16.144531 45.675781 16.144531 Z M 45.675781 16.144531 "/>
<path style=" stroke:none;fill-rule:nonzero;fill:rgb(7.45098%,2.745098%,32.941176%);fill-opacity:1;" d="M 59.230469 23.804688 L 59.230469 18.691406 C 59.230469 16.894531 58.617188 16.296875 57.496094 16.296875 C 56.328125 16.296875 55.058594 17.363281 55.058594 18.648438 L 55.058594 23.804688 L 52.597656 23.804688 L 52.597656 14.5625 L 54.847656 14.5625 L 54.953125 16.273438 C 55.566406 15.097656 56.941406 14.304688 58.34375 14.304688 C 60.777344 14.304688 61.691406 16.019531 61.691406 18.304688 L 61.691406 23.804688 Z M 59.230469 23.804688 "/>
<path style=" stroke:none;fill-rule:nonzero;fill:rgb(7.45098%,2.745098%,32.941176%);fill-opacity:1;" d="M 70.699219 23.808594 L 70.613281 22.332031 C 69.851562 23.464844 68.496094 24.0625 67.203125 24.0625 C 64.722656 24.0625 62.898438 21.964844 62.898438 19.183594 C 62.898438 16.402344 64.722656 14.304688 67.203125 14.304688 C 68.429688 14.304688 69.679688 14.820312 70.464844 15.824219 L 70.464844 10.96875 L 72.925781 10.96875 L 72.925781 23.808594 Z M 67.964844 16.148438 C 66.53125 16.148438 65.359375 17.28125 65.359375 19.183594 C 65.359375 21.085938 66.523438 22.222656 67.964844 22.222656 C 69.40625 22.222656 70.570312 21.089844 70.570312 19.183594 C 70.570312 17.28125 69.410156 16.148438 67.964844 16.148438 Z M 67.964844 16.148438 "/>
<path style=" stroke:none;fill-rule:nonzero;fill:rgb(7.45098%,2.745098%,32.941176%);fill-opacity:1;" d="M 82.160156 23.808594 L 82.074219 22.332031 C 81.308594 23.464844 79.953125 24.066406 78.660156 24.066406 C 76.183594 24.066406 74.355469 21.96875 74.355469 19.183594 C 74.355469 16.402344 76.179688 14.308594 78.660156 14.308594 C 79.953125 14.308594 81.308594 14.910156 82.074219 16.042969 L 82.160156 14.566406 L 84.382812 14.566406 L 84.382812 23.808594 Z M 79.425781 16.148438 C 77.992188 16.148438 76.820312 17.28125 76.820312 19.1875 C 76.816406 21.089844 77.984375 22.222656 79.425781 22.222656 C 80.863281 22.222656 82.03125 21.085938 82.03125 19.183594 C 82.03125 17.277344 80.867188 16.148438 79.425781 16.148438 Z M 79.425781 16.148438 "/>
<path style=" stroke:none;fill-rule:nonzero;fill:rgb(7.45098%,2.745098%,32.941176%);fill-opacity:1;" d="M 89.828125 24.109375 C 88.535156 24.097656 87.269531 23.734375 86.160156 23.058594 L 86.566406 21.347656 C 87.304688 21.796875 88.429688 22.375 89.785156 22.375 C 90.761719 22.375 91.4375 22.078125 91.4375 21.304688 C 91.4375 20.644531 90.738281 20.40625 89.488281 20.109375 C 87.242188 19.617188 86.4375 18.417969 86.4375 17.113281 C 86.4375 15.65625 87.5625 14.289062 90.039062 14.289062 C 91.542969 14.289062 92.859375 14.953125 93.148438 15.121094 L 92.746094 16.75 C 91.945312 16.261719 91.03125 15.996094 90.097656 15.980469 C 89.105469 15.980469 88.617188 16.320312 88.617188 16.878906 C 88.617188 17.496094 89.253906 17.777344 90.226562 18.011719 C 92.640625 18.523438 93.617188 19.660156 93.617188 20.898438 C 93.621094 22.890625 92.179688 24.109375 89.828125 24.109375 Z M 89.828125 24.109375 "/>
<path style=" stroke:none;fill-rule:nonzero;fill:rgb(7.45098%,2.745098%,32.941176%);fill-opacity:1;" d="M 9.007812 8.261719 L 11.886719 8.261719 L 11.886719 14.304688 L 9.007812 14.304688 Z M 9.007812 8.261719 "/>
<path style=" stroke:none;fill-rule:nonzero;fill:rgb(7.45098%,2.745098%,32.941176%);fill-opacity:1;" d="M 9.007812 20.671875 L 11.886719 20.671875 L 11.886719 26.714844 L 9.007812 26.714844 Z M 9.007812 20.671875 "/>
<path style=" stroke:none;fill-rule:nonzero;fill:rgb(100%,79.215686%,0%);fill-opacity:1;" d="M 9.007812 16.066406 L 11.886719 16.066406 L 11.886719 18.917969 L 9.007812 18.917969 Z M 9.007812 16.066406 "/>
<path style=" stroke:none;fill-rule:nonzero;fill:rgb(7.45098%,2.745098%,32.941176%);fill-opacity:1;" d="M 4.382812 13.230469 L 7.261719 13.230469 L 7.261719 33.3125 L 4.382812 33.3125 Z M 4.382812 13.230469 "/>
<path style=" stroke:none;fill-rule:nonzero;fill:rgb(7.45098%,2.745098%,32.941176%);fill-opacity:1;" d="M 13.539062 25.65625 L 16.421875 25.65625 L 16.421875 31.695312 L 13.539062 31.695312 Z M 13.539062 25.65625 "/>
<path style=" stroke:none;fill-rule:nonzero;fill:rgb(7.45098%,2.745098%,32.941176%);fill-opacity:1;" d="M 13.539062 13.238281 L 16.421875 13.238281 L 16.421875 19.277344 L 13.539062 19.277344 Z M 13.539062 13.238281 "/>
<path style=" stroke:none;fill-rule:nonzero;fill:rgb(90.588235%,1.568627%,53.333333%);fill-opacity:1;" d="M 13.539062 21.042969 L 16.421875 21.042969 L 16.421875 23.890625 L 13.539062 23.890625 Z M 13.539062 21.042969 "/>
<path style=" stroke:none;fill-rule:nonzero;fill:rgb(7.45098%,2.745098%,32.941176%);fill-opacity:1;" d="M 18.070312 6.6875 L 20.953125 6.6875 L 20.953125 26.769531 L 18.070312 26.769531 Z M 18.070312 6.6875 "/>
</g>
</svg>
