<?xml version="1.0" encoding="UTF-8"?>
<svg xmlns="http://www.w3.org/2000/svg" xmlns:xlink="http://www.w3.org/1999/xlink" width="786px" height="391px" viewBox="0 0 590 294" version="1.1">
<g id="surface1">
<path style=" stroke:none;fill-rule:evenodd;fill:rgb(67.843137%,72.941176%,78.039216%);fill-opacity:1;" d="M 3.316406 220.707031 L 16.945312 220.707031 C 18.777344 220.707031 20.265625 222.191406 20.265625 224.027344 L 20.265625 274.546875 C 20.265625 276.382812 18.777344 277.867188 16.945312 277.867188 L 3.316406 277.867188 C 1.484375 277.867188 0 276.382812 0 274.546875 L 0 224.027344 C 0 222.191406 1.484375 220.707031 3.316406 220.707031 Z M 3.316406 220.707031 "/>
<path style=" stroke:none;fill-rule:evenodd;fill:rgb(67.843137%,72.941176%,78.039216%);fill-opacity:1;" d="M 34.824219 154.316406 L 45.492188 154.316406 C 48.140625 154.316406 50.289062 156.464844 50.289062 159.117188 L 50.289062 220.710938 C 50.289062 223.363281 48.140625 225.511719 45.492188 225.511719 L 34.824219 225.511719 C 32.171875 225.511719 30.027344 223.363281 30.027344 220.710938 L 30.027344 159.117188 C 30.027344 156.464844 32.171875 154.316406 34.824219 154.316406 Z M 34.824219 154.316406 "/>
<path style=" stroke:none;fill-rule:evenodd;fill:rgb(67.843137%,72.941176%,78.039216%);fill-opacity:1;" d="M 33.34375 233.640625 L 46.972656 233.640625 C 48.804688 233.640625 50.289062 235.125 50.289062 236.960938 L 50.289062 290.449219 C 50.289062 292.28125 48.804688 293.769531 46.972656 293.769531 L 33.34375 293.769531 C 31.511719 293.769531 30.027344 292.28125 30.027344 290.449219 L 30.027344 236.960938 C 30.027344 235.125 31.511719 233.640625 33.34375 233.640625 Z M 33.34375 233.640625 "/>
<path style=" stroke:none;fill-rule:evenodd;fill:rgb(67.843137%,72.941176%,78.039216%);fill-opacity:1;" d="M 63.371094 87.296875 L 76.996094 87.296875 C 78.832031 87.296875 80.316406 88.785156 80.316406 90.617188 L 80.316406 190.785156 C 80.316406 192.617188 78.832031 194.105469 76.996094 194.105469 L 63.371094 194.105469 C 61.539062 194.105469 60.050781 192.617188 60.050781 190.785156 L 60.050781 90.617188 C 60.050781 88.785156 61.539062 87.296875 63.371094 87.296875 Z M 63.371094 87.296875 "/>
<path style=" stroke:none;fill-rule:evenodd;fill:rgb(67.843137%,72.941176%,78.039216%);fill-opacity:1;" d="M 63.371094 203.515625 L 76.996094 203.515625 C 78.832031 203.515625 80.316406 205.003906 80.316406 206.835938 L 80.316406 237.902344 C 80.316406 239.734375 78.832031 241.222656 76.996094 241.222656 L 63.371094 241.222656 C 61.539062 241.222656 60.050781 239.734375 60.050781 237.902344 L 60.050781 206.835938 C 60.050781 205.003906 61.539062 203.515625 63.371094 203.515625 Z M 63.371094 203.515625 "/>
<path style=" stroke:none;fill-rule:evenodd;fill:rgb(67.843137%,72.941176%,78.039216%);fill-opacity:1;" d="M 64.847656 266.542969 L 75.519531 266.542969 C 78.167969 266.542969 80.316406 268.691406 80.316406 271.34375 L 80.316406 288.96875 C 80.316406 291.621094 78.167969 293.769531 75.519531 293.769531 L 64.847656 293.769531 C 62.199219 293.769531 60.050781 291.621094 60.050781 288.96875 L 60.050781 271.34375 C 60.050781 268.691406 62.199219 266.542969 64.847656 266.542969 Z M 64.847656 266.542969 "/>
<path style=" stroke:none;fill-rule:evenodd;fill:rgb(67.843137%,72.941176%,78.039216%);fill-opacity:1;" d="M 93.394531 39.792969 L 107.023438 39.792969 C 108.855469 39.792969 110.339844 41.277344 110.339844 43.113281 L 110.339844 113.957031 C 110.339844 115.792969 108.855469 117.277344 107.023438 117.277344 L 93.394531 117.277344 C 91.5625 117.277344 90.078125 115.792969 90.078125 113.957031 L 90.078125 43.113281 C 90.078125 41.277344 91.5625 39.792969 93.394531 39.792969 Z M 93.394531 39.792969 "/>
<path style=" stroke:none;fill-rule:evenodd;fill:rgb(67.843137%,72.941176%,78.039216%);fill-opacity:1;" d="M 93.390625 125.910156 L 107.03125 125.910156 C 108.859375 125.910156 110.339844 127.394531 110.339844 129.222656 L 110.339844 225.25 C 110.339844 227.082031 108.859375 228.5625 107.03125 228.5625 L 93.390625 228.5625 C 91.558594 228.5625 90.078125 227.082031 90.078125 225.25 L 90.078125 129.222656 C 90.078125 127.394531 91.558594 125.910156 93.390625 125.910156 Z M 93.390625 125.910156 "/>
<path style=" stroke:none;fill-rule:evenodd;fill:rgb(67.843137%,72.941176%,78.039216%);fill-opacity:1;" d="M 123.417969 25.171875 L 137.046875 25.171875 C 138.878906 25.171875 140.363281 26.660156 140.363281 28.492188 L 140.363281 75.734375 C 140.363281 77.570312 138.878906 79.054688 137.046875 79.054688 L 123.417969 79.054688 C 121.585938 79.054688 120.101562 77.570312 120.101562 75.734375 L 120.101562 28.492188 C 120.101562 26.660156 121.585938 25.171875 123.417969 25.171875 Z M 123.417969 25.171875 "/>
<path style=" stroke:none;fill-rule:evenodd;fill:rgb(67.843137%,72.941176%,78.039216%);fill-opacity:1;" d="M 123.425781 87.367188 L 137.054688 87.367188 C 138.886719 87.367188 140.371094 88.851562 140.371094 90.6875 L 140.371094 158.660156 C 140.371094 160.496094 138.886719 161.980469 137.054688 161.980469 L 123.425781 161.980469 C 121.59375 161.980469 120.109375 160.496094 120.109375 158.660156 L 120.109375 90.6875 C 120.109375 88.851562 121.59375 87.367188 123.425781 87.367188 Z M 123.425781 87.367188 "/>
<path style=" stroke:none;fill-rule:evenodd;fill:rgb(67.843137%,72.941176%,78.039216%);fill-opacity:1;" d="M 123.425781 171.769531 L 137.054688 171.769531 C 138.886719 171.769531 140.371094 173.253906 140.371094 175.089844 L 140.371094 236.160156 C 140.371094 237.992188 138.886719 239.480469 137.054688 239.480469 L 123.425781 239.480469 C 121.59375 239.480469 120.109375 237.992188 120.109375 236.160156 L 120.109375 175.089844 C 120.109375 173.253906 121.59375 171.769531 123.425781 171.769531 Z M 123.425781 171.769531 "/>
<path style=" stroke:none;fill-rule:evenodd;fill:rgb(67.843137%,72.941176%,78.039216%);fill-opacity:1;" d="M 154.925781 13.324219 L 165.597656 13.324219 C 168.246094 13.324219 170.394531 15.476562 170.394531 18.125 L 170.394531 106.828125 C 170.394531 109.480469 168.246094 111.628906 165.597656 111.628906 L 154.925781 111.628906 C 152.277344 111.628906 150.128906 109.480469 150.128906 106.828125 L 150.128906 18.125 C 150.128906 15.476562 152.277344 13.324219 154.925781 13.324219 Z M 154.925781 13.324219 "/>
<path style=" stroke:none;fill-rule:evenodd;fill:rgb(67.843137%,72.941176%,78.039216%);fill-opacity:1;" d="M 154.925781 121.417969 L 165.597656 121.417969 C 168.246094 121.417969 170.394531 123.566406 170.394531 126.21875 L 170.394531 146.804688 C 170.394531 149.457031 168.246094 151.605469 165.597656 151.605469 L 154.925781 151.605469 C 152.277344 151.605469 150.128906 149.457031 150.128906 146.804688 L 150.128906 126.21875 C 150.128906 123.566406 152.277344 121.417969 154.925781 121.417969 Z M 154.925781 121.417969 "/>
<path style=" stroke:none;fill-rule:evenodd;fill:rgb(67.843137%,72.941176%,78.039216%);fill-opacity:1;" d="M 154.925781 158.445312 L 165.582031 158.445312 C 168.230469 158.445312 170.378906 160.597656 170.378906 163.246094 L 170.378906 254.910156 C 170.378906 257.5625 168.230469 259.710938 165.582031 259.710938 L 154.925781 259.710938 C 152.277344 259.710938 150.128906 257.5625 150.128906 254.910156 L 150.128906 163.246094 C 150.128906 160.597656 152.277344 158.445312 154.925781 158.445312 Z M 154.925781 158.445312 "/>
<path style=" stroke:none;fill-rule:evenodd;fill:rgb(67.843137%,72.941176%,78.039216%);fill-opacity:1;" d="M 184.953125 1.484375 L 195.621094 1.484375 C 198.273438 1.484375 200.417969 3.632812 200.417969 6.285156 L 200.417969 23.910156 C 200.417969 26.5625 198.273438 28.710938 195.621094 28.710938 L 184.953125 28.710938 C 182.304688 28.710938 180.15625 26.5625 180.15625 23.910156 L 180.15625 6.285156 C 180.15625 3.632812 182.304688 1.484375 184.953125 1.484375 Z M 184.953125 1.484375 "/>
<path style=" stroke:none;fill-rule:evenodd;fill:rgb(67.843137%,72.941176%,78.039216%);fill-opacity:1;" d="M 184.953125 37.015625 L 195.621094 37.015625 C 198.273438 37.015625 200.417969 39.164062 200.417969 41.816406 L 200.417969 177.90625 C 200.417969 180.558594 198.273438 182.707031 195.621094 182.707031 L 184.953125 182.707031 C 182.304688 182.707031 180.15625 180.558594 180.15625 177.90625 L 180.15625 41.816406 C 180.15625 39.164062 182.304688 37.015625 184.953125 37.015625 Z M 184.953125 37.015625 "/>
<path style=" stroke:none;fill-rule:evenodd;fill:rgb(67.843137%,72.941176%,78.039216%);fill-opacity:1;" d="M 184.953125 192.5 L 195.621094 192.5 C 198.273438 192.5 200.417969 194.648438 200.417969 197.300781 L 200.417969 234.171875 C 200.417969 236.824219 198.273438 238.972656 195.621094 238.972656 L 184.953125 238.972656 C 182.304688 238.972656 180.15625 236.824219 180.15625 234.171875 L 180.15625 197.300781 C 180.15625 194.648438 182.304688 192.5 184.953125 192.5 Z M 184.953125 192.5 "/>
<path style=" stroke:none;fill-rule:evenodd;fill:rgb(67.843137%,72.941176%,78.039216%);fill-opacity:1;" d="M 184.953125 248.773438 L 195.621094 248.773438 C 198.273438 248.773438 200.417969 250.921875 200.417969 253.574219 L 200.417969 277.121094 C 200.417969 279.773438 198.273438 281.921875 195.621094 281.921875 L 184.953125 281.921875 C 182.304688 281.921875 180.15625 279.773438 180.15625 277.121094 L 180.15625 253.574219 C 180.15625 250.921875 182.304688 248.773438 184.953125 248.773438 Z M 184.953125 248.773438 "/>
<path style=" stroke:none;fill-rule:evenodd;fill:rgb(67.843137%,72.941176%,78.039216%);fill-opacity:1;" d="M 214.980469 241.359375 L 225.648438 241.359375 C 228.296875 241.359375 230.445312 243.507812 230.445312 246.160156 L 230.445312 288.96875 C 230.445312 291.621094 228.296875 293.769531 225.648438 293.769531 L 214.980469 293.769531 C 212.328125 293.769531 210.183594 291.621094 210.183594 288.96875 L 210.183594 246.160156 C 210.183594 243.507812 212.328125 241.359375 214.980469 241.359375 Z M 214.980469 241.359375 "/>
<path style=" stroke:none;fill-rule:evenodd;fill:rgb(67.843137%,72.941176%,78.039216%);fill-opacity:1;" d="M 214.980469 93.292969 L 225.648438 93.292969 C 228.296875 93.292969 230.445312 95.441406 230.445312 98.09375 L 230.445312 203.082031 C 230.445312 205.730469 228.296875 207.882812 225.648438 207.882812 L 214.980469 207.882812 C 212.328125 207.882812 210.183594 205.730469 210.183594 203.082031 L 210.183594 98.09375 C 210.183594 95.441406 212.328125 93.292969 214.980469 93.292969 Z M 214.980469 93.292969 "/>
<path style=" stroke:none;fill-rule:evenodd;fill:rgb(67.843137%,72.941176%,78.039216%);fill-opacity:1;" d="M 214.980469 0 L 225.648438 0 C 228.296875 0 230.445312 2.148438 230.445312 4.800781 L 230.445312 78.691406 C 230.445312 81.34375 228.296875 83.492188 225.648438 83.492188 L 214.980469 83.492188 C 212.328125 83.492188 210.183594 81.34375 210.183594 78.691406 L 210.183594 4.800781 C 210.183594 2.148438 212.328125 0 214.980469 0 Z M 214.980469 0 "/>
<path style=" stroke:none;fill-rule:evenodd;fill:rgb(67.843137%,72.941176%,78.039216%);fill-opacity:1;" d="M 245.003906 263.582031 L 255.675781 263.582031 C 258.324219 263.582031 260.472656 265.730469 260.472656 268.382812 L 260.472656 288.96875 C 260.472656 291.621094 258.324219 293.769531 255.675781 293.769531 L 245.003906 293.769531 C 242.355469 293.769531 240.207031 291.621094 240.207031 288.96875 L 240.207031 268.382812 C 240.207031 265.730469 242.355469 263.582031 245.003906 263.582031 Z M 245.003906 263.582031 "/>
<path style=" stroke:none;fill-rule:evenodd;fill:rgb(67.843137%,72.941176%,78.039216%);fill-opacity:1;" d="M 245.003906 1.480469 L 255.675781 1.480469 C 258.324219 1.480469 260.472656 3.628906 260.472656 6.28125 L 260.472656 132 C 260.472656 134.652344 258.324219 136.800781 255.675781 136.800781 L 245.003906 136.800781 C 242.355469 136.800781 240.207031 134.652344 240.207031 132 L 240.207031 6.28125 C 240.207031 3.628906 242.355469 1.480469 245.003906 1.480469 Z M 245.003906 1.480469 "/>
<path style=" stroke:none;fill-rule:evenodd;fill:rgb(67.843137%,72.941176%,78.039216%);fill-opacity:1;" d="M 245.003906 146.597656 L 255.675781 146.597656 C 258.324219 146.597656 260.472656 148.75 260.472656 151.398438 L 260.472656 203.082031 C 260.472656 205.734375 258.324219 207.882812 255.675781 207.882812 L 245.003906 207.882812 C 242.355469 207.882812 240.207031 205.734375 240.207031 203.082031 L 240.207031 151.398438 C 240.207031 148.75 242.355469 146.597656 245.003906 146.597656 Z M 245.003906 146.597656 "/>
<path style=" stroke:none;fill-rule:evenodd;fill:rgb(67.843137%,72.941176%,78.039216%);fill-opacity:1;" d="M 275.03125 7.402344 L 285.699219 7.402344 C 288.347656 7.402344 290.496094 9.554688 290.496094 12.203125 L 290.496094 47.597656 C 290.496094 50.246094 288.347656 52.394531 285.699219 52.394531 L 275.03125 52.394531 C 272.382812 52.394531 270.234375 50.246094 270.234375 47.597656 L 270.234375 12.203125 C 270.234375 9.554688 272.382812 7.402344 275.03125 7.402344 Z M 275.03125 7.402344 "/>
<path style=" stroke:none;fill-rule:evenodd;fill:rgb(67.843137%,72.941176%,78.039216%);fill-opacity:1;" d="M 275.03125 62.1875 L 285.699219 62.1875 C 288.347656 62.1875 290.496094 64.335938 290.496094 66.988281 L 290.496094 203.070312 C 290.496094 205.722656 288.347656 207.871094 285.699219 207.871094 L 275.03125 207.871094 C 272.382812 207.871094 270.234375 205.722656 270.234375 203.070312 L 270.234375 66.988281 C 270.234375 64.335938 272.382812 62.1875 275.03125 62.1875 Z M 275.03125 62.1875 "/>
<path style=" stroke:none;fill-rule:evenodd;fill:rgb(67.843137%,72.941176%,78.039216%);fill-opacity:1;" d="M 305.050781 10.367188 L 315.71875 10.367188 C 318.371094 10.367188 320.519531 12.515625 320.519531 15.167969 L 320.519531 93.503906 C 320.519531 96.15625 318.371094 98.304688 315.71875 98.304688 L 305.050781 98.304688 C 302.402344 98.304688 300.253906 96.15625 300.253906 93.503906 L 300.253906 15.167969 C 300.253906 12.515625 302.402344 10.367188 305.050781 10.367188 Z M 305.050781 10.367188 "/>
<path style=" stroke:none;fill-rule:evenodd;fill:rgb(67.843137%,72.941176%,78.039216%);fill-opacity:1;" d="M 305.050781 108.101562 L 315.71875 108.101562 C 318.371094 108.101562 320.519531 110.25 320.519531 112.902344 L 320.519531 177.914062 C 320.519531 180.566406 318.371094 182.714844 315.71875 182.714844 L 305.050781 182.714844 C 302.402344 182.714844 300.253906 180.566406 300.253906 177.914062 L 300.253906 112.902344 C 300.253906 110.25 302.402344 108.101562 305.050781 108.101562 Z M 305.050781 108.101562 "/>
<path style=" stroke:none;fill-rule:evenodd;fill:rgb(67.843137%,72.941176%,78.039216%);fill-opacity:1;" d="M 305.050781 192.496094 L 315.71875 192.496094 C 318.371094 192.496094 320.519531 194.644531 320.519531 197.296875 L 320.519531 226.765625 C 320.519531 229.417969 318.371094 231.566406 315.71875 231.566406 L 305.050781 231.566406 C 302.402344 231.566406 300.253906 229.417969 300.253906 226.765625 L 300.253906 197.296875 C 300.253906 194.644531 302.402344 192.496094 305.050781 192.496094 Z M 305.050781 192.496094 "/>
<path style=" stroke:none;fill-rule:evenodd;fill:rgb(67.843137%,72.941176%,78.039216%);fill-opacity:1;" d="M 334.894531 14.8125 L 345.5625 14.8125 C 348.210938 14.8125 350.359375 16.964844 350.359375 19.613281 L 350.359375 140.890625 C 350.359375 143.542969 348.210938 145.691406 345.5625 145.691406 L 334.894531 145.691406 C 332.246094 145.691406 330.097656 143.542969 330.097656 140.890625 L 330.097656 19.613281 C 330.097656 16.964844 332.246094 14.8125 334.894531 14.8125 Z M 334.894531 14.8125 "/>
<path style=" stroke:none;fill-rule:evenodd;fill:rgb(67.843137%,72.941176%,78.039216%);fill-opacity:1;" d="M 334.894531 155.484375 L 345.5625 155.484375 C 348.210938 155.484375 350.359375 157.636719 350.359375 160.285156 L 350.359375 256.390625 C 350.359375 259.042969 348.210938 261.191406 345.5625 261.191406 L 334.894531 261.191406 C 332.246094 261.191406 330.097656 259.042969 330.097656 256.390625 L 330.097656 160.285156 C 330.097656 157.636719 332.246094 155.484375 334.894531 155.484375 Z M 334.894531 155.484375 "/>
<path style=" stroke:none;fill-rule:evenodd;fill:rgb(67.843137%,72.941176%,78.039216%);fill-opacity:1;" d="M 364.714844 10.367188 L 375.386719 10.367188 C 378.035156 10.367188 380.183594 12.519531 380.183594 15.167969 L 380.183594 66.851562 C 380.183594 69.503906 378.035156 71.652344 375.386719 71.652344 L 364.714844 71.652344 C 362.066406 71.652344 359.917969 69.503906 359.917969 66.851562 L 359.917969 15.167969 C 359.917969 12.519531 362.066406 10.367188 364.714844 10.367188 Z M 364.714844 10.367188 "/>
<path style=" stroke:none;fill-rule:evenodd;fill:rgb(67.843137%,72.941176%,78.039216%);fill-opacity:1;" d="M 364.714844 81.445312 L 375.386719 81.445312 C 378.035156 81.445312 380.183594 83.59375 380.183594 86.246094 L 380.183594 237.144531 C 380.183594 239.796875 378.035156 241.945312 375.386719 241.945312 L 364.714844 241.945312 C 362.066406 241.945312 359.917969 239.796875 359.917969 237.144531 L 359.917969 86.246094 C 359.917969 83.59375 362.066406 81.445312 364.714844 81.445312 Z M 364.714844 81.445312 "/>
<path style=" stroke:none;fill-rule:evenodd;fill:rgb(67.843137%,72.941176%,78.039216%);fill-opacity:1;" d="M 364.714844 251.734375 L 375.386719 251.734375 C 378.035156 251.734375 380.183594 253.882812 380.183594 256.535156 L 380.183594 284.523438 C 380.183594 287.175781 378.035156 289.324219 375.386719 289.324219 L 364.714844 289.324219 C 362.066406 289.324219 359.917969 287.175781 359.917969 284.523438 L 359.917969 256.535156 C 359.917969 253.882812 362.066406 251.734375 364.714844 251.734375 Z M 364.714844 251.734375 "/>
<path style=" stroke:none;fill-rule:evenodd;fill:rgb(67.843137%,72.941176%,78.039216%);fill-opacity:1;" d="M 394.738281 242.847656 L 405.40625 242.847656 C 408.054688 242.847656 410.203125 244.996094 410.203125 247.648438 L 410.203125 288.96875 C 410.203125 291.621094 408.054688 293.769531 405.40625 293.769531 L 394.738281 293.769531 C 392.085938 293.769531 389.941406 291.621094 389.941406 288.96875 L 389.941406 247.648438 C 389.941406 244.996094 392.085938 242.847656 394.738281 242.847656 Z M 394.738281 242.847656 "/>
<path style=" stroke:none;fill-rule:evenodd;fill:rgb(67.843137%,72.941176%,78.039216%);fill-opacity:1;" d="M 394.738281 116.984375 L 405.40625 116.984375 C 408.054688 116.984375 410.203125 119.132812 410.203125 121.785156 L 410.203125 149.78125 C 410.203125 152.429688 408.054688 154.582031 405.40625 154.582031 L 394.738281 154.582031 C 392.085938 154.582031 389.941406 152.429688 389.941406 149.78125 L 389.941406 121.785156 C 389.941406 119.132812 392.085938 116.984375 394.738281 116.984375 Z M 394.738281 116.984375 "/>
<path style=" stroke:none;fill-rule:evenodd;fill:rgb(67.843137%,72.941176%,78.039216%);fill-opacity:1;" d="M 394.738281 8.886719 L 405.40625 8.886719 C 408.054688 8.886719 410.203125 11.035156 410.203125 13.6875 L 410.203125 102.386719 C 410.203125 105.039062 408.054688 107.1875 405.40625 107.1875 L 394.738281 107.1875 C 392.085938 107.1875 389.941406 105.039062 389.941406 102.386719 L 389.941406 13.6875 C 389.941406 11.035156 392.085938 8.886719 394.738281 8.886719 Z M 394.738281 8.886719 "/>
<path style=" stroke:none;fill-rule:evenodd;fill:rgb(67.843137%,72.941176%,78.039216%);fill-opacity:1;" d="M 425.167969 16.292969 L 435.835938 16.292969 C 438.484375 16.292969 440.632812 18.445312 440.632812 21.09375 L 440.632812 133.492188 C 440.632812 136.140625 438.484375 138.289062 435.835938 138.289062 L 425.167969 138.289062 C 422.519531 138.289062 420.371094 136.140625 420.371094 133.492188 L 420.371094 21.09375 C 420.371094 18.445312 422.519531 16.292969 425.167969 16.292969 Z M 425.167969 16.292969 "/>
<path style=" stroke:none;fill-rule:evenodd;fill:rgb(67.843137%,72.941176%,78.039216%);fill-opacity:1;" d="M 425.167969 266.542969 L 435.835938 266.542969 C 438.484375 266.542969 440.632812 268.691406 440.632812 271.34375 L 440.632812 288.96875 C 440.632812 291.621094 438.484375 293.769531 435.835938 293.769531 L 425.167969 293.769531 C 422.519531 293.769531 420.371094 291.621094 420.371094 288.96875 L 420.371094 271.34375 C 420.371094 268.691406 422.519531 266.542969 425.167969 266.542969 Z M 425.167969 266.542969 "/>
<path style=" stroke:none;fill-rule:evenodd;fill:rgb(67.843137%,72.941176%,78.039216%);fill-opacity:1;" d="M 454.769531 25.179688 L 465.4375 25.179688 C 468.085938 25.179688 470.234375 27.328125 470.234375 29.980469 L 470.234375 57.976562 C 470.234375 60.628906 468.085938 62.777344 465.4375 62.777344 L 454.769531 62.777344 C 452.121094 62.777344 449.972656 60.628906 449.972656 57.976562 L 449.972656 29.980469 C 449.972656 27.328125 452.121094 25.179688 454.769531 25.179688 Z M 454.769531 25.179688 "/>
<path style=" stroke:none;fill-rule:evenodd;fill:rgb(67.843137%,72.941176%,78.039216%);fill-opacity:1;" d="M 454.769531 72.558594 L 465.4375 72.558594 C 468.085938 72.558594 470.234375 74.707031 470.234375 77.359375 L 470.234375 130.523438 C 470.234375 133.171875 468.085938 135.324219 465.4375 135.324219 L 454.769531 135.324219 C 452.121094 135.324219 449.972656 133.171875 449.972656 130.523438 L 449.972656 77.359375 C 449.972656 74.707031 452.121094 72.558594 454.769531 72.558594 Z M 454.769531 72.558594 "/>
<path style=" stroke:none;fill-rule:evenodd;fill:rgb(67.843137%,72.941176%,78.039216%);fill-opacity:1;" d="M 485.171875 32.574219 L 495.84375 32.574219 C 498.492188 32.574219 500.640625 34.722656 500.640625 37.375 L 500.640625 55 C 500.640625 57.652344 498.492188 59.800781 495.84375 59.800781 L 485.171875 59.800781 C 482.523438 59.800781 480.375 57.652344 480.375 55 L 480.375 37.375 C 480.375 34.722656 482.523438 32.574219 485.171875 32.574219 Z M 485.171875 32.574219 "/>
<path style=" stroke:none;fill-rule:evenodd;fill:rgb(67.843137%,72.941176%,78.039216%);fill-opacity:1;" d="M 485.171875 68.113281 L 495.84375 68.113281 C 498.492188 68.113281 500.640625 70.261719 500.640625 72.914062 L 500.640625 89.058594 C 500.640625 91.710938 498.492188 93.859375 495.84375 93.859375 L 485.171875 93.859375 C 482.523438 93.859375 480.375 91.710938 480.375 89.058594 L 480.375 72.914062 C 480.375 70.261719 482.523438 68.113281 485.171875 68.113281 Z M 485.171875 68.113281 "/>
<path style=" stroke:none;fill-rule:evenodd;fill:rgb(67.843137%,72.941176%,78.039216%);fill-opacity:1;" d="M 485.171875 102.167969 L 495.84375 102.167969 C 498.492188 102.167969 500.640625 104.316406 500.640625 106.96875 L 500.640625 133.476562 C 500.640625 136.128906 498.492188 138.277344 495.84375 138.277344 L 485.171875 138.277344 C 482.523438 138.277344 480.375 136.128906 480.375 133.476562 L 480.375 106.96875 C 480.375 104.316406 482.523438 102.167969 485.171875 102.167969 Z M 485.171875 102.167969 "/>
<path style=" stroke:none;fill-rule:evenodd;fill:rgb(67.843137%,72.941176%,78.039216%);fill-opacity:1;" d="M 515.195312 41.464844 L 525.863281 41.464844 C 528.511719 41.464844 530.660156 43.613281 530.660156 46.261719 L 530.660156 137.925781 C 530.660156 140.578125 528.511719 142.726562 525.863281 142.726562 L 515.195312 142.726562 C 512.542969 142.726562 510.398438 140.578125 510.398438 137.925781 L 510.398438 46.261719 C 510.398438 43.613281 512.542969 41.464844 515.195312 41.464844 Z M 515.195312 41.464844 "/>
<path style=" stroke:none;fill-rule:evenodd;fill:rgb(67.843137%,72.941176%,78.039216%);fill-opacity:1;" d="M 545.027344 68.113281 L 555.695312 68.113281 C 558.347656 68.113281 560.496094 70.261719 560.496094 72.910156 L 560.496094 134.957031 C 560.496094 137.609375 558.347656 139.757812 555.695312 139.757812 L 545.027344 139.757812 C 542.378906 139.757812 540.230469 137.609375 540.230469 134.957031 L 540.230469 72.910156 C 540.230469 70.261719 542.378906 68.113281 545.027344 68.113281 Z M 545.027344 68.113281 "/>
<path style=" stroke:none;fill-rule:evenodd;fill:rgb(67.843137%,72.941176%,78.039216%);fill-opacity:1;" d="M 574.625 102.171875 L 585.296875 102.171875 C 587.945312 102.171875 590.09375 104.320312 590.09375 106.972656 L 590.09375 124.597656 C 590.09375 127.25 587.945312 129.398438 585.296875 129.398438 L 574.625 129.398438 C 571.976562 129.398438 569.828125 127.25 569.828125 124.597656 L 569.828125 106.972656 C 569.828125 104.320312 571.976562 102.171875 574.625 102.171875 Z M 574.625 102.171875 "/>
</g>
</svg>
