<?xml version="1.0" encoding="UTF-8"?>
<svg xmlns="http://www.w3.org/2000/svg" xmlns:xlink="http://www.w3.org/1999/xlink" width="100px" height="50px" viewBox="0 0 100 50" version="1.1">
<g id="surface1">
<path style=" stroke:none;fill-rule:evenodd;fill:rgb(67.843137%,72.941176%,78.039216%);fill-opacity:1;" d="M 0.644531 37.535156 L 2.953125 37.535156 C 3.261719 37.535156 3.515625 37.789062 3.515625 38.101562 L 3.515625 46.691406 C 3.515625 47.003906 3.261719 47.257812 2.953125 47.257812 L 0.644531 47.257812 C 0.335938 47.257812 0.0859375 47.003906 0.0859375 46.691406 L 0.0859375 38.101562 C 0.0859375 37.789062 0.335938 37.535156 0.644531 37.535156 Z M 0.644531 37.535156 "/>
<path style=" stroke:none;fill-rule:evenodd;fill:rgb(67.843137%,72.941176%,78.039216%);fill-opacity:1;" d="M 5.976562 26.246094 L 7.78125 26.246094 C 8.230469 26.246094 8.59375 26.609375 8.59375 27.0625 L 8.59375 37.535156 C 8.59375 37.988281 8.230469 38.351562 7.78125 38.351562 L 5.976562 38.351562 C 5.527344 38.351562 5.164062 37.988281 5.164062 37.535156 L 5.164062 27.0625 C 5.164062 26.609375 5.527344 26.246094 5.976562 26.246094 Z M 5.976562 26.246094 "/>
<path style=" stroke:none;fill-rule:evenodd;fill:rgb(67.843137%,72.941176%,78.039216%);fill-opacity:1;" d="M 5.726562 39.734375 L 8.03125 39.734375 C 8.34375 39.734375 8.59375 39.988281 8.59375 40.300781 L 8.59375 49.394531 C 8.59375 49.707031 8.34375 49.960938 8.03125 49.960938 L 5.726562 49.960938 C 5.417969 49.960938 5.164062 49.707031 5.164062 49.394531 L 5.164062 40.300781 C 5.164062 39.988281 5.417969 39.734375 5.726562 39.734375 Z M 5.726562 39.734375 "/>
<path style=" stroke:none;fill-rule:evenodd;fill:rgb(67.843137%,72.941176%,78.039216%);fill-opacity:1;" d="M 10.808594 14.847656 L 13.113281 14.847656 C 13.425781 14.847656 13.675781 15.097656 13.675781 15.410156 L 13.675781 32.445312 C 13.675781 32.757812 13.425781 33.011719 13.113281 33.011719 L 10.808594 33.011719 C 10.496094 33.011719 10.246094 32.757812 10.246094 32.445312 L 10.246094 15.410156 C 10.246094 15.097656 10.496094 14.847656 10.808594 14.847656 Z M 10.808594 14.847656 "/>
<path style=" stroke:none;fill-rule:evenodd;fill:rgb(67.843137%,72.941176%,78.039216%);fill-opacity:1;" d="M 10.808594 34.613281 L 13.113281 34.613281 C 13.425781 34.613281 13.675781 34.863281 13.675781 35.175781 L 13.675781 40.460938 C 13.675781 40.769531 13.425781 41.023438 13.113281 41.023438 L 10.808594 41.023438 C 10.496094 41.023438 10.246094 40.769531 10.246094 40.460938 L 10.246094 35.175781 C 10.246094 34.863281 10.496094 34.613281 10.808594 34.613281 Z M 10.808594 34.613281 "/>
<path style=" stroke:none;fill-rule:evenodd;fill:rgb(67.843137%,72.941176%,78.039216%);fill-opacity:1;" d="M 11.058594 45.332031 L 12.863281 45.332031 C 13.3125 45.332031 13.675781 45.695312 13.675781 46.148438 L 13.675781 49.144531 C 13.675781 49.59375 13.3125 49.960938 12.863281 49.960938 L 11.058594 49.960938 C 10.609375 49.960938 10.246094 49.59375 10.246094 49.144531 L 10.246094 46.148438 C 10.246094 45.695312 10.609375 45.332031 11.058594 45.332031 Z M 11.058594 45.332031 "/>
<path style=" stroke:none;fill-rule:evenodd;fill:rgb(67.843137%,72.941176%,78.039216%);fill-opacity:1;" d="M 15.886719 6.765625 L 18.195312 6.765625 C 18.503906 6.765625 18.753906 7.019531 18.753906 7.332031 L 18.753906 19.378906 C 18.753906 19.691406 18.503906 19.945312 18.195312 19.945312 L 15.886719 19.945312 C 15.578125 19.945312 15.328125 19.691406 15.328125 19.378906 L 15.328125 7.332031 C 15.328125 7.019531 15.578125 6.765625 15.886719 6.765625 Z M 15.886719 6.765625 "/>
<path style=" stroke:none;fill-rule:evenodd;fill:rgb(67.843137%,72.941176%,78.039216%);fill-opacity:1;" d="M 15.886719 21.414062 L 18.195312 21.414062 C 18.503906 21.414062 18.753906 21.664062 18.753906 21.976562 L 18.753906 38.308594 C 18.753906 38.621094 18.503906 38.871094 18.195312 38.871094 L 15.886719 38.871094 C 15.578125 38.871094 15.328125 38.621094 15.328125 38.308594 L 15.328125 21.976562 C 15.328125 21.664062 15.578125 21.414062 15.886719 21.414062 Z M 15.886719 21.414062 "/>
<path style=" stroke:none;fill-rule:evenodd;fill:rgb(67.843137%,72.941176%,78.039216%);fill-opacity:1;" d="M 20.96875 4.28125 L 23.273438 4.28125 C 23.582031 4.28125 23.835938 4.535156 23.835938 4.84375 L 23.835938 12.878906 C 23.835938 13.191406 23.582031 13.445312 23.273438 13.445312 L 20.96875 13.445312 C 20.65625 13.445312 20.40625 13.191406 20.40625 12.878906 L 20.40625 4.84375 C 20.40625 4.535156 20.65625 4.28125 20.96875 4.28125 Z M 20.96875 4.28125 "/>
<path style=" stroke:none;fill-rule:evenodd;fill:rgb(67.843137%,72.941176%,78.039216%);fill-opacity:1;" d="M 20.96875 14.859375 L 23.273438 14.859375 C 23.585938 14.859375 23.835938 15.109375 23.835938 15.421875 L 23.835938 26.984375 C 23.835938 27.296875 23.585938 27.546875 23.273438 27.546875 L 20.96875 27.546875 C 20.660156 27.546875 20.40625 27.296875 20.40625 26.984375 L 20.40625 15.421875 C 20.40625 15.109375 20.660156 14.859375 20.96875 14.859375 Z M 20.96875 14.859375 "/>
<path style=" stroke:none;fill-rule:evenodd;fill:rgb(67.843137%,72.941176%,78.039216%);fill-opacity:1;" d="M 20.96875 29.210938 L 23.273438 29.210938 C 23.585938 29.210938 23.835938 29.464844 23.835938 29.777344 L 23.835938 40.164062 C 23.835938 40.476562 23.585938 40.726562 23.273438 40.726562 L 20.96875 40.726562 C 20.660156 40.726562 20.40625 40.476562 20.40625 40.164062 L 20.40625 29.777344 C 20.40625 29.464844 20.660156 29.210938 20.96875 29.210938 Z M 20.96875 29.210938 "/>
<path style=" stroke:none;fill-rule:evenodd;fill:rgb(67.843137%,72.941176%,78.039216%);fill-opacity:1;" d="M 26.300781 2.265625 L 28.105469 2.265625 C 28.554688 2.265625 28.917969 2.632812 28.917969 3.082031 L 28.917969 18.167969 C 28.917969 18.617188 28.554688 18.984375 28.105469 18.984375 L 26.300781 18.984375 C 25.851562 18.984375 25.488281 18.617188 25.488281 18.167969 L 25.488281 3.082031 C 25.488281 2.632812 25.851562 2.265625 26.300781 2.265625 Z M 26.300781 2.265625 "/>
<path style=" stroke:none;fill-rule:evenodd;fill:rgb(67.843137%,72.941176%,78.039216%);fill-opacity:1;" d="M 26.300781 20.648438 L 28.105469 20.648438 C 28.554688 20.648438 28.917969 21.015625 28.917969 21.464844 L 28.917969 24.964844 C 28.917969 25.417969 28.554688 25.785156 28.105469 25.785156 L 26.300781 25.785156 C 25.851562 25.785156 25.488281 25.417969 25.488281 24.964844 L 25.488281 21.464844 C 25.488281 21.015625 25.851562 20.648438 26.300781 20.648438 Z M 26.300781 20.648438 "/>
<path style=" stroke:none;fill-rule:evenodd;fill:rgb(67.843137%,72.941176%,78.039216%);fill-opacity:1;" d="M 26.300781 26.945312 L 28.101562 26.945312 C 28.550781 26.945312 28.914062 27.3125 28.914062 27.761719 L 28.914062 43.351562 C 28.914062 43.804688 28.550781 44.167969 28.101562 44.167969 L 26.300781 44.167969 C 25.851562 44.167969 25.488281 43.804688 25.488281 43.351562 L 25.488281 27.761719 C 25.488281 27.3125 25.851562 26.945312 26.300781 26.945312 Z M 26.300781 26.945312 "/>
<path style=" stroke:none;fill-rule:evenodd;fill:rgb(67.843137%,72.941176%,78.039216%);fill-opacity:1;" d="M 31.378906 0.253906 L 33.183594 0.253906 C 33.632812 0.253906 33.996094 0.617188 33.996094 1.070312 L 33.996094 4.066406 C 33.996094 4.515625 33.632812 4.882812 33.183594 4.882812 L 31.378906 4.882812 C 30.933594 4.882812 30.566406 4.515625 30.566406 4.066406 L 30.566406 1.070312 C 30.566406 0.617188 30.933594 0.253906 31.378906 0.253906 Z M 31.378906 0.253906 "/>
<path style=" stroke:none;fill-rule:evenodd;fill:rgb(67.843137%,72.941176%,78.039216%);fill-opacity:1;" d="M 31.378906 6.296875 L 33.183594 6.296875 C 33.632812 6.296875 33.996094 6.660156 33.996094 7.113281 L 33.996094 30.257812 C 33.996094 30.707031 33.632812 31.074219 33.183594 31.074219 L 31.378906 31.074219 C 30.933594 31.074219 30.566406 30.707031 30.566406 30.257812 L 30.566406 7.113281 C 30.566406 6.660156 30.933594 6.296875 31.378906 6.296875 Z M 31.378906 6.296875 "/>
<path style=" stroke:none;fill-rule:evenodd;fill:rgb(67.843137%,72.941176%,78.039216%);fill-opacity:1;" d="M 31.378906 32.738281 L 33.183594 32.738281 C 33.632812 32.738281 33.996094 33.101562 33.996094 33.554688 L 33.996094 39.824219 C 33.996094 40.277344 33.632812 40.640625 33.183594 40.640625 L 31.378906 40.640625 C 30.933594 40.640625 30.566406 40.277344 30.566406 39.824219 L 30.566406 33.554688 C 30.566406 33.101562 30.933594 32.738281 31.378906 32.738281 Z M 31.378906 32.738281 "/>
<path style=" stroke:none;fill-rule:evenodd;fill:rgb(67.843137%,72.941176%,78.039216%);fill-opacity:1;" d="M 31.378906 42.308594 L 33.183594 42.308594 C 33.632812 42.308594 33.996094 42.671875 33.996094 43.125 L 33.996094 47.128906 C 33.996094 47.582031 33.632812 47.945312 33.183594 47.945312 L 31.378906 47.945312 C 30.933594 47.945312 30.566406 47.582031 30.566406 47.128906 L 30.566406 43.125 C 30.566406 42.671875 30.933594 42.308594 31.378906 42.308594 Z M 31.378906 42.308594 "/>
<path style=" stroke:none;fill-rule:evenodd;fill:rgb(67.843137%,72.941176%,78.039216%);fill-opacity:1;" d="M 36.460938 41.046875 L 38.265625 41.046875 C 38.714844 41.046875 39.078125 41.414062 39.078125 41.863281 L 39.078125 49.144531 C 39.078125 49.59375 38.714844 49.960938 38.265625 49.960938 L 36.460938 49.960938 C 36.011719 49.960938 35.648438 49.59375 35.648438 49.144531 L 35.648438 41.863281 C 35.648438 41.414062 36.011719 41.046875 36.460938 41.046875 Z M 36.460938 41.046875 "/>
<path style=" stroke:none;fill-rule:evenodd;fill:rgb(67.843137%,72.941176%,78.039216%);fill-opacity:1;" d="M 36.460938 15.867188 L 38.265625 15.867188 C 38.714844 15.867188 39.078125 16.230469 39.078125 16.683594 L 39.078125 34.539062 C 39.078125 34.988281 38.714844 35.355469 38.265625 35.355469 L 36.460938 35.355469 C 36.011719 35.355469 35.648438 34.988281 35.648438 34.539062 L 35.648438 16.683594 C 35.648438 16.230469 36.011719 15.867188 36.460938 15.867188 Z M 36.460938 15.867188 "/>
<path style=" stroke:none;fill-rule:evenodd;fill:rgb(67.843137%,72.941176%,78.039216%);fill-opacity:1;" d="M 36.460938 0 L 38.265625 0 C 38.714844 0 39.078125 0.367188 39.078125 0.816406 L 39.078125 13.382812 C 39.078125 13.832031 38.714844 14.199219 38.265625 14.199219 L 36.460938 14.199219 C 36.011719 14.199219 35.648438 13.832031 35.648438 13.382812 L 35.648438 0.816406 C 35.648438 0.367188 36.011719 0 36.460938 0 Z M 36.460938 0 "/>
<path style=" stroke:none;fill-rule:evenodd;fill:rgb(67.843137%,72.941176%,78.039216%);fill-opacity:1;" d="M 41.539062 44.828125 L 43.347656 44.828125 C 43.792969 44.828125 44.15625 45.191406 44.15625 45.644531 L 44.15625 49.144531 C 44.15625 49.59375 43.792969 49.960938 43.347656 49.960938 L 41.539062 49.960938 C 41.09375 49.960938 40.730469 49.59375 40.730469 49.144531 L 40.730469 45.644531 C 40.730469 45.191406 41.09375 44.828125 41.539062 44.828125 Z M 41.539062 44.828125 "/>
<path style=" stroke:none;fill-rule:evenodd;fill:rgb(67.843137%,72.941176%,78.039216%);fill-opacity:1;" d="M 41.539062 0.25 L 43.347656 0.25 C 43.792969 0.25 44.15625 0.617188 44.15625 1.066406 L 44.15625 22.449219 C 44.15625 22.898438 43.792969 23.265625 43.347656 23.265625 L 41.539062 23.265625 C 41.09375 23.265625 40.730469 22.898438 40.730469 22.449219 L 40.730469 1.066406 C 40.730469 0.617188 41.09375 0.25 41.539062 0.25 Z M 41.539062 0.25 "/>
<path style=" stroke:none;fill-rule:evenodd;fill:rgb(67.843137%,72.941176%,78.039216%);fill-opacity:1;" d="M 41.539062 24.929688 L 43.347656 24.929688 C 43.792969 24.929688 44.15625 25.296875 44.15625 25.746094 L 44.15625 34.539062 C 44.15625 34.988281 43.792969 35.355469 43.347656 35.355469 L 41.539062 35.355469 C 41.09375 35.355469 40.730469 34.988281 40.730469 34.539062 L 40.730469 25.746094 C 40.730469 25.296875 41.09375 24.929688 41.539062 24.929688 Z M 41.539062 24.929688 "/>
<path style=" stroke:none;fill-rule:evenodd;fill:rgb(67.843137%,72.941176%,78.039216%);fill-opacity:1;" d="M 46.621094 1.257812 L 48.425781 1.257812 C 48.875 1.257812 49.238281 1.625 49.238281 2.074219 L 49.238281 8.09375 C 49.238281 8.546875 48.875 8.910156 48.425781 8.910156 L 46.621094 8.910156 C 46.171875 8.910156 45.808594 8.546875 45.808594 8.09375 L 45.808594 2.074219 C 45.808594 1.625 46.171875 1.257812 46.621094 1.257812 Z M 46.621094 1.257812 "/>
<path style=" stroke:none;fill-rule:evenodd;fill:rgb(67.843137%,72.941176%,78.039216%);fill-opacity:1;" d="M 46.621094 10.574219 L 48.425781 10.574219 C 48.875 10.574219 49.238281 10.941406 49.238281 11.390625 L 49.238281 34.535156 C 49.238281 34.988281 48.875 35.351562 48.425781 35.351562 L 46.621094 35.351562 C 46.171875 35.351562 45.808594 34.988281 45.808594 34.535156 L 45.808594 11.390625 C 45.808594 10.941406 46.171875 10.574219 46.621094 10.574219 Z M 46.621094 10.574219 "/>
<path style=" stroke:none;fill-rule:evenodd;fill:rgb(67.843137%,72.941176%,78.039216%);fill-opacity:1;" d="M 51.699219 1.761719 L 53.503906 1.761719 C 53.953125 1.761719 54.316406 2.128906 54.316406 2.578125 L 54.316406 15.902344 C 54.316406 16.351562 53.953125 16.71875 53.503906 16.71875 L 51.699219 16.71875 C 51.253906 16.71875 50.890625 16.351562 50.890625 15.902344 L 50.890625 2.578125 C 50.890625 2.128906 51.253906 1.761719 51.699219 1.761719 Z M 51.699219 1.761719 "/>
<path style=" stroke:none;fill-rule:evenodd;fill:rgb(67.843137%,72.941176%,78.039216%);fill-opacity:1;" d="M 51.699219 18.382812 L 53.503906 18.382812 C 53.953125 18.382812 54.316406 18.75 54.316406 19.199219 L 54.316406 30.257812 C 54.316406 30.707031 53.953125 31.074219 53.503906 31.074219 L 51.699219 31.074219 C 51.253906 31.074219 50.890625 30.707031 50.890625 30.257812 L 50.890625 19.199219 C 50.890625 18.75 51.253906 18.382812 51.699219 18.382812 Z M 51.699219 18.382812 "/>
<path style=" stroke:none;fill-rule:evenodd;fill:rgb(67.843137%,72.941176%,78.039216%);fill-opacity:1;" d="M 51.699219 32.738281 L 53.503906 32.738281 C 53.953125 32.738281 54.316406 33.101562 54.316406 33.554688 L 54.316406 38.566406 C 54.316406 39.015625 53.953125 39.382812 53.503906 39.382812 L 51.699219 39.382812 C 51.253906 39.382812 50.890625 39.015625 50.890625 38.566406 L 50.890625 33.554688 C 50.890625 33.101562 51.253906 32.738281 51.699219 32.738281 Z M 51.699219 32.738281 "/>
<path style=" stroke:none;fill-rule:evenodd;fill:rgb(67.843137%,72.941176%,78.039216%);fill-opacity:1;" d="M 56.75 2.519531 L 58.554688 2.519531 C 59.003906 2.519531 59.367188 2.886719 59.367188 3.335938 L 59.367188 23.960938 C 59.367188 24.410156 59.003906 24.777344 58.554688 24.777344 L 56.75 24.777344 C 56.300781 24.777344 55.9375 24.410156 55.9375 23.960938 L 55.9375 3.335938 C 55.9375 2.886719 56.300781 2.519531 56.75 2.519531 Z M 56.75 2.519531 "/>
<path style=" stroke:none;fill-rule:evenodd;fill:rgb(67.843137%,72.941176%,78.039216%);fill-opacity:1;" d="M 56.75 26.441406 L 58.554688 26.441406 C 59.003906 26.441406 59.367188 26.808594 59.367188 27.257812 L 59.367188 43.605469 C 59.367188 44.054688 59.003906 44.421875 58.554688 44.421875 L 56.75 44.421875 C 56.300781 44.421875 55.9375 44.054688 55.9375 43.605469 L 55.9375 27.257812 C 55.9375 26.808594 56.300781 26.441406 56.75 26.441406 Z M 56.75 26.441406 "/>
<path style=" stroke:none;fill-rule:evenodd;fill:rgb(67.843137%,72.941176%,78.039216%);fill-opacity:1;" d="M 61.796875 1.761719 L 63.601562 1.761719 C 64.050781 1.761719 64.414062 2.128906 64.414062 2.578125 L 64.414062 11.371094 C 64.414062 11.820312 64.050781 12.1875 63.601562 12.1875 L 61.796875 12.1875 C 61.347656 12.1875 60.984375 11.820312 60.984375 11.371094 L 60.984375 2.578125 C 60.984375 2.128906 61.347656 1.761719 61.796875 1.761719 Z M 61.796875 1.761719 "/>
<path style=" stroke:none;fill-rule:evenodd;fill:rgb(67.843137%,72.941176%,78.039216%);fill-opacity:1;" d="M 61.796875 13.851562 L 63.601562 13.851562 C 64.050781 13.851562 64.414062 14.214844 64.414062 14.667969 L 64.414062 40.332031 C 64.414062 40.78125 64.050781 41.148438 63.601562 41.148438 L 61.796875 41.148438 C 61.347656 41.148438 60.984375 40.78125 60.984375 40.332031 L 60.984375 14.667969 C 60.984375 14.214844 61.347656 13.851562 61.796875 13.851562 Z M 61.796875 13.851562 "/>
<path style=" stroke:none;fill-rule:evenodd;fill:rgb(67.843137%,72.941176%,78.039216%);fill-opacity:1;" d="M 61.796875 42.8125 L 63.601562 42.8125 C 64.050781 42.8125 64.414062 43.175781 64.414062 43.628906 L 64.414062 48.386719 C 64.414062 48.839844 64.050781 49.203125 63.601562 49.203125 L 61.796875 49.203125 C 61.347656 49.203125 60.984375 48.839844 60.984375 48.386719 L 60.984375 43.628906 C 60.984375 43.175781 61.347656 42.8125 61.796875 42.8125 Z M 61.796875 42.8125 "/>
<path style=" stroke:none;fill-rule:evenodd;fill:rgb(67.843137%,72.941176%,78.039216%);fill-opacity:1;" d="M 66.875 41.300781 L 68.679688 41.300781 C 69.128906 41.300781 69.492188 41.664062 69.492188 42.117188 L 69.492188 49.144531 C 69.492188 49.59375 69.128906 49.960938 68.679688 49.960938 L 66.875 49.960938 C 66.425781 49.960938 66.0625 49.59375 66.0625 49.144531 L 66.0625 42.117188 C 66.0625 41.664062 66.425781 41.300781 66.875 41.300781 Z M 66.875 41.300781 "/>
<path style=" stroke:none;fill-rule:evenodd;fill:rgb(67.843137%,72.941176%,78.039216%);fill-opacity:1;" d="M 66.875 19.894531 L 68.679688 19.894531 C 69.128906 19.894531 69.492188 20.261719 69.492188 20.710938 L 69.492188 25.472656 C 69.492188 25.921875 69.128906 26.289062 68.679688 26.289062 L 66.875 26.289062 C 66.425781 26.289062 66.0625 25.921875 66.0625 25.472656 L 66.0625 20.710938 C 66.0625 20.261719 66.425781 19.894531 66.875 19.894531 Z M 66.875 19.894531 "/>
<path style=" stroke:none;fill-rule:evenodd;fill:rgb(67.843137%,72.941176%,78.039216%);fill-opacity:1;" d="M 66.875 1.511719 L 68.679688 1.511719 C 69.128906 1.511719 69.492188 1.875 69.492188 2.328125 L 69.492188 17.414062 C 69.492188 17.863281 69.128906 18.230469 68.679688 18.230469 L 66.875 18.230469 C 66.425781 18.230469 66.0625 17.863281 66.0625 17.414062 L 66.0625 2.328125 C 66.0625 1.875 66.425781 1.511719 66.875 1.511719 Z M 66.875 1.511719 "/>
<path style=" stroke:none;fill-rule:evenodd;fill:rgb(67.843137%,72.941176%,78.039216%);fill-opacity:1;" d="M 72.023438 2.769531 L 73.828125 2.769531 C 74.277344 2.769531 74.640625 3.136719 74.640625 3.585938 L 74.640625 22.703125 C 74.640625 23.152344 74.277344 23.519531 73.828125 23.519531 L 72.023438 23.519531 C 71.578125 23.519531 71.214844 23.152344 71.214844 22.703125 L 71.214844 3.585938 C 71.214844 3.136719 71.578125 2.769531 72.023438 2.769531 Z M 72.023438 2.769531 "/>
<path style=" stroke:none;fill-rule:evenodd;fill:rgb(67.843137%,72.941176%,78.039216%);fill-opacity:1;" d="M 72.023438 45.332031 L 73.828125 45.332031 C 74.277344 45.332031 74.640625 45.695312 74.640625 46.148438 L 74.640625 49.144531 C 74.640625 49.59375 74.277344 49.960938 73.828125 49.960938 L 72.023438 49.960938 C 71.578125 49.960938 71.214844 49.59375 71.214844 49.144531 L 71.214844 46.148438 C 71.214844 45.695312 71.578125 45.332031 72.023438 45.332031 Z M 72.023438 45.332031 "/>
<path style=" stroke:none;fill-rule:evenodd;fill:rgb(67.843137%,72.941176%,78.039216%);fill-opacity:1;" d="M 77.035156 4.28125 L 78.839844 4.28125 C 79.285156 4.28125 79.648438 4.648438 79.648438 5.097656 L 79.648438 9.859375 C 79.648438 10.3125 79.285156 10.675781 78.839844 10.675781 L 77.035156 10.675781 C 76.585938 10.675781 76.222656 10.3125 76.222656 9.859375 L 76.222656 5.097656 C 76.222656 4.648438 76.585938 4.28125 77.035156 4.28125 Z M 77.035156 4.28125 "/>
<path style=" stroke:none;fill-rule:evenodd;fill:rgb(67.843137%,72.941176%,78.039216%);fill-opacity:1;" d="M 77.035156 12.339844 L 78.839844 12.339844 C 79.285156 12.339844 79.648438 12.707031 79.648438 13.15625 L 79.648438 22.199219 C 79.648438 22.648438 79.285156 23.015625 78.839844 23.015625 L 77.035156 23.015625 C 76.585938 23.015625 76.222656 22.648438 76.222656 22.199219 L 76.222656 13.15625 C 76.222656 12.707031 76.585938 12.339844 77.035156 12.339844 Z M 77.035156 12.339844 "/>
<path style=" stroke:none;fill-rule:evenodd;fill:rgb(67.843137%,72.941176%,78.039216%);fill-opacity:1;" d="M 82.175781 5.539062 L 83.984375 5.539062 C 84.429688 5.539062 84.792969 5.90625 84.792969 6.355469 L 84.792969 9.355469 C 84.792969 9.804688 84.429688 10.171875 83.984375 10.171875 L 82.175781 10.171875 C 81.730469 10.171875 81.367188 9.804688 81.367188 9.355469 L 81.367188 6.355469 C 81.367188 5.90625 81.730469 5.539062 82.175781 5.539062 Z M 82.175781 5.539062 "/>
<path style=" stroke:none;fill-rule:evenodd;fill:rgb(67.843137%,72.941176%,78.039216%);fill-opacity:1;" d="M 82.175781 11.582031 L 83.984375 11.582031 C 84.429688 11.582031 84.792969 11.949219 84.792969 12.398438 L 84.792969 15.144531 C 84.792969 15.597656 84.429688 15.960938 83.984375 15.960938 L 82.175781 15.960938 C 81.730469 15.960938 81.367188 15.597656 81.367188 15.144531 L 81.367188 12.398438 C 81.367188 11.949219 81.730469 11.582031 82.175781 11.582031 Z M 82.175781 11.582031 "/>
<path style=" stroke:none;fill-rule:evenodd;fill:rgb(67.843137%,72.941176%,78.039216%);fill-opacity:1;" d="M 82.175781 17.375 L 83.984375 17.375 C 84.429688 17.375 84.792969 17.742188 84.792969 18.191406 L 84.792969 22.699219 C 84.792969 23.152344 84.429688 23.515625 83.984375 23.515625 L 82.175781 23.515625 C 81.730469 23.515625 81.367188 23.152344 81.367188 22.699219 L 81.367188 18.191406 C 81.367188 17.742188 81.730469 17.375 82.175781 17.375 Z M 82.175781 17.375 "/>
<path style=" stroke:none;fill-rule:evenodd;fill:rgb(67.843137%,72.941176%,78.039216%);fill-opacity:1;" d="M 87.257812 7.050781 L 89.0625 7.050781 C 89.511719 7.050781 89.875 7.417969 89.875 7.867188 L 89.875 23.457031 C 89.875 23.90625 89.511719 24.273438 89.0625 24.273438 L 87.257812 24.273438 C 86.808594 24.273438 86.445312 23.90625 86.445312 23.457031 L 86.445312 7.867188 C 86.445312 7.417969 86.808594 7.050781 87.257812 7.050781 Z M 87.257812 7.050781 "/>
<path style=" stroke:none;fill-rule:evenodd;fill:rgb(67.843137%,72.941176%,78.039216%);fill-opacity:1;" d="M 92.304688 11.582031 L 94.109375 11.582031 C 94.558594 11.582031 94.921875 11.949219 94.921875 12.398438 L 94.921875 22.953125 C 94.921875 23.402344 94.558594 23.769531 94.109375 23.769531 L 92.304688 23.769531 C 91.855469 23.769531 91.492188 23.402344 91.492188 22.953125 L 91.492188 12.398438 C 91.492188 11.949219 91.855469 11.582031 92.304688 11.582031 Z M 92.304688 11.582031 "/>
<path style=" stroke:none;fill-rule:evenodd;fill:rgb(67.843137%,72.941176%,78.039216%);fill-opacity:1;" d="M 97.3125 17.375 L 99.117188 17.375 C 99.566406 17.375 99.929688 17.742188 99.929688 18.191406 L 99.929688 21.191406 C 99.929688 21.640625 99.566406 22.007812 99.117188 22.007812 L 97.3125 22.007812 C 96.863281 22.007812 96.5 21.640625 96.5 21.191406 L 96.5 18.191406 C 96.5 17.742188 96.863281 17.375 97.3125 17.375 Z M 97.3125 17.375 "/>
</g>
</svg>
